<svg width="151" height="151" viewBox="0 0 151 151" fill="none" xmlns="http://www.w3.org/2000/svg">
<path d="M151 75.5C151 117.197 117.197 151 75.5 151C33.8025 151 0 117.197 0 75.5C0 33.8025 33.8025 0 75.5 0C117.197 0 151 33.8025 151 75.5Z" fill="#DD624E"/>
<path d="M43.3973 114.5C39.1381 114.5 35.386 113.76 32.1409 112.28C28.8958 110.8 26.3944 108.748 24.6366 106.125C22.8789 103.434 22 100.34 22 96.8415C22 93.8816 22.6085 91.1908 23.8254 88.7691C25.1099 86.3473 26.8 84.4301 28.8958 83.0175C31.0592 81.6048 33.4254 80.8985 35.9944 80.8985C38.3606 80.8985 40.355 81.5039 41.9775 82.7148C43.6001 83.8583 44.6142 85.4728 45.0198 87.5582C41.5043 87.5582 38.6987 88.5 36.6029 90.3836C34.5071 92.1999 33.4592 94.6889 33.4592 97.8506C33.4592 100.743 34.3381 103.064 36.0958 104.813C37.8536 106.562 40.186 107.437 43.093 107.437C46.6761 107.437 49.617 106.259 51.9156 103.905C54.2818 101.483 55.4649 98.456 55.4649 94.8234C55.4649 91.6617 54.586 88.6682 52.8283 85.8428C51.0705 83.0175 48.4339 79.5867 44.9184 75.5505C41.2677 71.3797 38.4958 67.8144 36.6029 64.8545C34.7775 61.8273 33.8648 58.531 33.8648 54.9657C33.8648 51.4677 34.8451 48.3396 36.8057 45.5815C38.7663 42.7561 41.4705 40.5362 44.9184 38.9217C48.3663 37.3072 52.2536 36.5 56.5804 36.5C62.0565 36.5 66.4171 37.7781 69.6621 40.3344C72.9748 42.8907 74.6312 46.3215 74.6312 50.6268C74.6312 53.4521 73.9213 55.7393 72.5016 57.4884C71.0819 59.2374 69.2227 60.1119 66.9241 60.1119C64.3551 60.1119 62.2931 59.0692 60.7382 56.9838C62.0227 56.042 63.0368 54.7975 63.7804 53.2503C64.5241 51.7031 64.8959 50.0886 64.8959 48.4069C64.8959 46.2542 64.2537 44.5388 62.9692 43.2607C61.6847 41.9825 59.9269 41.3435 57.6959 41.3435C54.9917 41.3435 52.7607 42.3189 51.0029 44.2697C49.3128 46.1533 48.4677 48.575 48.4677 51.5349C48.4677 54.2257 49.2452 56.7484 50.8001 59.1029C52.355 61.39 54.7889 64.3499 58.1015 67.9825C60.8058 70.8752 62.9692 73.3642 64.5917 75.4495C66.2819 77.5349 67.7016 79.9567 68.8509 82.7148C70.0678 85.4056 70.6762 88.3318 70.6762 91.4935C70.6762 95.7988 69.4593 99.7005 67.0255 103.199C64.6593 106.697 61.3804 109.455 57.1889 111.473C53.0649 113.491 48.4677 114.5 43.3973 114.5Z" fill="white"/>
<path d="M109.603 114.5C113.862 114.5 117.614 113.76 120.859 112.28C124.104 110.8 126.606 108.748 128.363 106.125C130.121 103.434 131 100.34 131 96.8415C131 93.8816 130.392 91.1908 129.175 88.7691C127.89 86.3473 126.2 84.4301 124.104 83.0175C121.941 81.6048 119.575 80.8985 117.006 80.8985C114.639 80.8985 112.645 81.5039 111.022 82.7148C109.4 83.8583 108.386 85.4728 107.98 87.5582C111.496 87.5582 114.301 88.5 116.397 90.3836C118.493 92.1999 119.541 94.6889 119.541 97.8506C119.541 100.743 118.662 103.064 116.904 104.813C115.146 106.562 112.814 107.437 109.907 107.437C106.324 107.437 103.383 106.259 101.084 103.905C98.7182 101.483 97.5351 98.456 97.5351 94.8234C97.5351 91.6617 98.414 88.6682 100.172 85.8428C101.929 83.0175 104.566 79.5867 108.082 75.5505C111.732 71.3797 114.504 67.8144 116.397 64.8545C118.222 61.8273 119.135 58.531 119.135 54.9657C119.135 51.4677 118.155 48.3396 116.194 45.5815C114.234 42.7561 111.53 40.5362 108.082 38.9217C104.634 37.3072 100.746 36.5 96.4196 36.5C90.9435 36.5 86.5829 37.7781 83.3378 40.3344C80.0252 42.8907 78.3688 46.3215 78.3688 50.6268C78.3688 53.4521 79.0787 55.7393 80.4984 57.4884C81.9181 59.2374 83.7773 60.1119 86.0759 60.1119C88.6449 60.1119 90.7069 59.0692 92.2618 56.9838C90.9773 56.042 89.9632 54.7975 89.2196 53.2503C88.4759 51.7031 88.1041 50.0886 88.1041 48.4069C88.1041 46.2542 88.7463 44.5388 90.0308 43.2607C91.3153 41.9825 93.0731 41.3435 95.3041 41.3435C98.0083 41.3435 100.239 42.3189 101.997 44.2697C103.687 46.1533 104.532 48.575 104.532 51.5349C104.532 54.2257 103.755 56.7484 102.2 59.1029C100.645 61.39 98.2111 64.3499 94.8985 67.9825C92.1942 70.8752 90.0308 73.3642 88.4083 75.4495C86.7181 77.5349 85.2984 79.9567 84.1491 82.7148C82.9322 85.4056 82.3238 88.3318 82.3238 91.4935C82.3238 95.7988 83.5407 99.7005 85.9745 103.199C88.3407 106.697 91.6196 109.455 95.8111 111.473C99.9351 113.491 104.532 114.5 109.603 114.5Z" fill="white"/>
</svg>
