<svg width="63" height="55" viewBox="0 0 63 55" fill="none" xmlns="http://www.w3.org/2000/svg">
<path d="M12.3672 45C9.9055 45 7.73684 44.5731 5.86124 43.7193C3.98565 42.8655 2.53987 41.6818 1.52392 40.1682C0.507974 38.6158 0 36.8305 0 34.8124C0 33.1048 0.351675 31.5524 1.05502 30.1552C1.79745 28.7581 2.77432 27.652 3.98565 26.837C5.23604 26.022 6.60367 25.6145 8.08852 25.6145C9.45614 25.6145 10.6089 25.9638 11.5467 26.6624C12.4845 27.3221 13.0706 28.2536 13.305 29.4567C11.2731 29.4567 9.65151 30 8.44019 31.0867C7.22887 32.1345 6.62321 33.5705 6.62321 35.3946C6.62321 37.0634 7.13118 38.4023 8.14713 39.4114C9.16308 40.4204 10.5112 40.925 12.1914 40.925C14.2624 40.925 15.9621 40.2458 17.2907 38.8874C18.6583 37.4903 19.3421 35.7439 19.3421 33.6481C19.3421 31.8241 18.8341 30.097 17.8182 28.467C16.8022 26.837 15.2783 24.8577 13.2464 22.5291C11.1364 20.1229 9.53429 18.066 8.44019 16.3583C7.38517 14.6119 6.85766 12.7102 6.85766 10.6533C6.85766 8.63519 7.42424 6.83053 8.55742 5.23933C9.69059 3.60932 11.2536 2.32859 13.2464 1.39716C15.2392 0.465719 17.486 0 19.9868 0C23.1519 0 25.6722 0.737388 27.5478 2.21216C29.4625 3.68694 30.4199 5.66624 30.4199 8.15007C30.4199 9.78008 30.0096 11.0996 29.189 12.1087C28.3684 13.1177 27.2939 13.6223 25.9653 13.6223C24.4805 13.6223 23.2887 13.0207 22.39 11.8176C23.1324 11.2743 23.7185 10.5563 24.1483 9.66365C24.5781 8.77102 24.7931 7.83959 24.7931 6.86934C24.7931 5.62743 24.4218 4.63778 23.6794 3.90039C22.937 3.163 21.9211 2.79431 20.6316 2.79431C19.0686 2.79431 17.7791 3.35705 16.7632 4.48254C15.7863 5.56921 15.2978 6.96637 15.2978 8.674C15.2978 10.2264 15.7472 11.6818 16.6459 13.0401C17.5447 14.3596 18.9514 16.0673 20.866 18.163C22.429 19.8318 23.6794 21.2678 24.6172 22.4709C25.5941 23.674 26.4147 25.0712 27.0789 26.6624C27.7823 28.2147 28.134 29.903 28.134 31.727C28.134 34.2109 27.4306 36.4618 26.0239 38.4799C24.6563 40.4981 22.7612 42.0893 20.3385 43.2536C17.9549 44.4179 15.2978 45 12.3672 45Z" fill="#FFFADF"/>
<path d="M50.6328 45C53.0945 45 55.2632 44.5731 57.1388 43.7193C59.0143 42.8655 60.4601 41.6818 61.4761 40.1682C62.492 38.6158 63 36.8305 63 34.8124C63 33.1048 62.6483 31.5524 61.945 30.1552C61.2025 28.7581 60.2257 27.652 59.0143 26.837C57.764 26.022 56.3963 25.6145 54.9115 25.6145C53.5439 25.6145 52.3911 25.9638 51.4533 26.6624C50.5155 27.3221 49.9294 28.2536 49.695 29.4567C51.7269 29.4567 53.3485 30 54.5598 31.0867C55.7711 32.1345 56.3768 33.5705 56.3768 35.3946C56.3768 37.0634 55.8688 38.4023 54.8529 39.4114C53.8369 40.4204 52.4888 40.925 50.8086 40.925C48.7376 40.925 47.0379 40.2458 45.7093 38.8874C44.3417 37.4903 43.6579 35.7439 43.6579 33.6481C43.6579 31.8241 44.1659 30.097 45.1818 28.467C46.1978 26.837 47.7217 24.8577 49.7536 22.5291C51.8636 20.1229 53.4657 18.066 54.5598 16.3583C55.6148 14.6119 56.1423 12.7102 56.1423 10.6533C56.1423 8.63519 55.5758 6.83053 54.4426 5.23933C53.3094 3.60932 51.7464 2.32859 49.7536 1.39716C47.7608 0.465719 45.5139 0 43.0132 0C39.8481 0 37.3277 0.737388 35.4521 2.21216C33.5375 3.68694 32.5801 5.66624 32.5801 8.15007C32.5801 9.78008 32.9904 11.0996 33.811 12.1087C34.6316 13.1177 35.7061 13.6223 37.0347 13.6223C38.5195 13.6223 39.7113 13.0207 40.61 11.8176C39.8676 11.2743 39.2815 10.5563 38.8517 9.66365C38.4218 8.77102 38.2069 7.83959 38.2069 6.86934C38.2069 5.62743 38.5781 4.63778 39.3206 3.90039C40.063 3.163 41.0789 2.79431 42.3684 2.79431C43.9314 2.79431 45.2209 3.35705 46.2368 4.48254C47.2137 5.56921 47.7022 6.96637 47.7022 8.674C47.7022 10.2264 47.2528 11.6818 46.3541 13.0401C45.4553 14.3596 44.0486 16.0673 42.134 18.163C40.571 19.8318 39.3206 21.2678 38.3828 22.4709C37.4059 23.674 36.5853 25.0712 35.921 26.6624C35.2177 28.2147 34.866 29.903 34.866 31.727C34.866 34.2109 35.5694 36.4618 36.9761 38.4799C38.3437 40.4981 40.2388 42.0893 42.6615 43.2536C45.0451 44.4179 47.7021 45 50.6328 45Z" fill="#FFFADF"/>
<path d="M2.6446 53.482C2.33069 53.482 2.04863 53.434 1.79842 53.338C1.55275 53.238 1.3594 53.102 1.21837 52.93C1.07734 52.754 1.00455 52.552 1 52.324H1.66193C1.68468 52.52 1.77567 52.686 1.9349 52.822C2.09867 52.954 2.33524 53.02 2.6446 53.02C2.94031 53.02 3.17233 52.956 3.34065 52.828C3.51353 52.696 3.59997 52.528 3.59997 52.324C3.59997 52.164 3.54993 52.034 3.44984 51.934C3.34975 51.834 3.22465 51.758 3.07452 51.706C2.92439 51.654 2.72194 51.598 2.46717 51.538C2.15327 51.466 1.90078 51.394 1.7097 51.322C1.52318 51.25 1.36168 51.138 1.22519 50.986C1.09326 50.83 1.0273 50.622 1.0273 50.362C1.0273 50.134 1.09326 49.932 1.22519 49.756C1.35713 49.58 1.54138 49.444 1.77794 49.348C2.01906 49.252 2.2943 49.204 2.60366 49.204C3.04949 49.204 3.41344 49.302 3.69551 49.498C3.98212 49.694 4.14362 49.954 4.18001 50.278H3.49761C3.47486 50.118 3.37932 49.978 3.211 49.858C3.04267 49.734 2.81975 49.672 2.54224 49.672C2.28292 49.672 2.07138 49.732 1.9076 49.852C1.74382 49.968 1.66193 50.132 1.66193 50.344C1.66193 50.496 1.7097 50.62 1.80524 50.716C1.90533 50.812 2.02588 50.886 2.16692 50.938C2.3125 50.986 2.51494 51.042 2.77426 51.106C3.08816 51.182 3.34065 51.258 3.53173 51.334C3.7228 51.406 3.88658 51.52 4.02306 51.676C4.15954 51.828 4.22778 52.036 4.22778 52.3C4.22778 52.504 4.16637 52.696 4.04353 52.876C3.9207 53.056 3.73873 53.202 3.49761 53.314C3.25649 53.426 2.97216 53.482 2.6446 53.482Z" fill="#FFFADF"/>
<path d="M8.53318 50.092C8.98812 50.092 9.35662 50.214 9.63868 50.458C9.92074 50.698 10.0618 51.046 10.0618 51.502V53.44H9.44761V51.58C9.44761 51.252 9.35435 51.002 9.16782 50.83C8.9813 50.654 8.72653 50.566 8.40353 50.566C8.07597 50.566 7.81438 50.656 7.61876 50.836C7.42768 51.016 7.33215 51.278 7.33215 51.622V53.44H6.71116V50.152H7.33215V50.62C7.45498 50.452 7.62103 50.322 7.8303 50.23C8.04412 50.138 8.27842 50.092 8.53318 50.092Z" fill="#FFFADF"/>
<path d="M16.0577 51.67C16.0577 51.774 16.0509 51.884 16.0373 52H13.0483C13.0711 52.324 13.1962 52.578 13.4236 52.762C13.6557 52.942 13.9354 53.032 14.263 53.032C14.5314 53.032 14.7543 52.978 14.9318 52.87C15.1137 52.758 15.2411 52.61 15.3139 52.426H15.9827C15.8826 52.742 15.6824 53 15.3821 53.2C15.0819 53.396 14.7088 53.494 14.263 53.494C13.9081 53.494 13.5897 53.424 13.3076 53.284C13.0301 53.144 12.8117 52.946 12.6525 52.69C12.4933 52.43 12.4137 52.13 12.4137 51.79C12.4137 51.45 12.491 51.152 12.6457 50.896C12.8004 50.64 13.0165 50.444 13.294 50.308C13.576 50.168 13.899 50.098 14.263 50.098C14.6179 50.098 14.9318 50.166 15.2047 50.302C15.4777 50.438 15.687 50.626 15.8325 50.866C15.9827 51.102 16.0577 51.37 16.0577 51.67ZM15.4163 51.556C15.4163 51.348 15.3639 51.17 15.2593 51.022C15.1547 50.87 15.0114 50.756 14.8294 50.68C14.652 50.6 14.4541 50.56 14.2357 50.56C13.9218 50.56 13.6534 50.648 13.4305 50.824C13.2121 51 13.087 51.244 13.0551 51.556H15.4163Z" fill="#FFFADF"/>
<path d="M18.2149 51.784C18.2149 51.448 18.2923 51.154 18.447 50.902C18.6016 50.646 18.8132 50.448 19.0816 50.308C19.3546 50.168 19.6571 50.098 19.9892 50.098C20.3167 50.098 20.6011 50.16 20.8422 50.284C21.0833 50.408 21.263 50.564 21.3813 50.752V50.152H22.0091V53.44H21.3813V52.828C21.2585 53.02 21.0742 53.18 20.8286 53.308C20.5874 53.432 20.3054 53.494 19.9824 53.494C19.6503 53.494 19.35 53.422 19.0816 53.278C18.8132 53.134 18.6016 52.932 18.447 52.672C18.2923 52.412 18.2149 52.116 18.2149 51.784ZM21.3813 51.79C21.3813 51.542 21.3244 51.326 21.2107 51.142C21.097 50.958 20.9423 50.818 20.7467 50.722C20.5556 50.622 20.344 50.572 20.112 50.572C19.88 50.572 19.6685 50.62 19.4774 50.716C19.2863 50.812 19.1339 50.952 19.0202 51.136C18.9064 51.32 18.8496 51.536 18.8496 51.784C18.8496 52.036 18.9064 52.256 19.0202 52.444C19.1339 52.628 19.2863 52.77 19.4774 52.87C19.6685 52.966 19.88 53.014 20.112 53.014C20.344 53.014 20.5556 52.966 20.7467 52.87C20.9423 52.77 21.097 52.628 21.2107 52.444C21.3244 52.256 21.3813 52.038 21.3813 51.79Z" fill="#FFFADF"/>
<path d="M26.7162 53.44L25.2491 51.988V53.44H24.6281V49H25.2491V51.61L26.6889 50.152H27.5556L25.795 51.79L27.5624 53.44H26.7162Z" fill="#FFFADF"/>
<path d="M30.3306 49V53.44H29.7096V49H30.3306Z" fill="#FFFADF"/>
<path d="M36.1794 50.152L33.9275 54.988H33.286L34.023 53.404L32.5149 50.152H33.2042L34.3779 52.816L35.538 50.152H36.1794Z" fill="#FFFADF"/>
<path d="M43.2702 53.482C42.9563 53.482 42.6742 53.434 42.424 53.338C42.1783 53.238 41.985 53.102 41.844 52.93C41.7029 52.754 41.6301 52.552 41.6256 52.324H42.2875C42.3103 52.52 42.4013 52.686 42.5605 52.822C42.7243 52.954 42.9608 53.02 43.2702 53.02C43.5659 53.02 43.7979 52.956 43.9662 52.828C44.1391 52.696 44.2256 52.528 44.2256 52.324C44.2256 52.164 44.1755 52.034 44.0754 51.934C43.9753 51.834 43.8502 51.758 43.7001 51.706C43.55 51.654 43.3475 51.598 43.0928 51.538C42.7789 51.466 42.5264 51.394 42.3353 51.322C42.1488 51.25 41.9873 51.138 41.8508 50.986C41.7188 50.83 41.6529 50.622 41.6529 50.362C41.6529 50.134 41.7188 49.932 41.8508 49.756C41.9827 49.58 42.167 49.444 42.4035 49.348C42.6446 49.252 42.9199 49.204 43.2292 49.204C43.6751 49.204 44.039 49.302 44.3211 49.498C44.6077 49.694 44.7692 49.954 44.8056 50.278H44.1232C44.1004 50.118 44.0049 49.978 43.8366 49.858C43.6683 49.734 43.4453 49.672 43.1678 49.672C42.9085 49.672 42.697 49.732 42.5332 49.852C42.3694 49.968 42.2875 50.132 42.2875 50.344C42.2875 50.496 42.3353 50.62 42.4308 50.716C42.5309 50.812 42.6515 50.886 42.7925 50.938C42.9381 50.986 43.1405 51.042 43.3998 51.106C43.7137 51.182 43.9662 51.258 44.1573 51.334C44.3484 51.406 44.5122 51.52 44.6486 51.676C44.7851 51.828 44.8534 52.036 44.8534 52.3C44.8534 52.504 44.792 52.696 44.6691 52.876C44.5463 53.056 44.3643 53.202 44.1232 53.314C43.8821 53.426 43.5977 53.482 43.2702 53.482Z" fill="#FFFADF"/>
<path d="M49.1929 50.092C49.4749 50.092 49.7297 50.146 49.9572 50.254C50.1847 50.358 50.3621 50.516 50.4895 50.728C50.6214 50.94 50.6874 51.198 50.6874 51.502V53.44H50.0732V51.58C50.0732 51.252 49.9799 51.002 49.7934 50.83C49.6069 50.654 49.3521 50.566 49.0291 50.566C48.7016 50.566 48.44 50.656 48.2443 50.836C48.0533 51.016 47.9577 51.278 47.9577 51.622V53.44H47.3367V49H47.9577V50.62C48.0806 50.452 48.2489 50.322 48.4627 50.23C48.6811 50.138 48.9245 50.092 49.1929 50.092Z" fill="#FFFADF"/>
<path d="M54.9022 53.494C54.5519 53.494 54.2335 53.424 53.9469 53.284C53.6648 53.144 53.4419 52.946 53.2781 52.69C53.1189 52.43 53.0393 52.13 53.0393 51.79C53.0393 51.454 53.1212 51.158 53.2849 50.902C53.4533 50.642 53.6807 50.444 53.9673 50.308C54.2539 50.168 54.5747 50.098 54.9295 50.098C55.2844 50.098 55.6051 50.168 55.8917 50.308C56.1783 50.444 56.4035 50.64 56.5673 50.896C56.7356 51.152 56.8198 51.45 56.8198 51.79C56.8198 52.13 56.7334 52.43 56.5605 52.69C56.3922 52.946 56.1624 53.144 55.8713 53.284C55.5801 53.424 55.2571 53.494 54.9022 53.494ZM54.9022 53.014C55.1251 53.014 55.3344 52.968 55.53 52.876C55.7257 52.784 55.8826 52.646 56.0009 52.462C56.1237 52.278 56.1852 52.054 56.1852 51.79C56.1852 51.526 56.126 51.302 56.0077 51.118C55.8894 50.934 55.7348 50.798 55.5437 50.71C55.3526 50.618 55.1456 50.572 54.9227 50.572C54.6952 50.572 54.486 50.618 54.2949 50.71C54.1084 50.798 53.9582 50.934 53.8445 51.118C53.7308 51.302 53.6739 51.526 53.6739 51.79C53.6739 52.058 53.7285 52.284 53.8377 52.468C53.9514 52.652 54.1015 52.79 54.2881 52.882C54.4746 52.97 54.6793 53.014 54.9022 53.014Z" fill="#FFFADF"/>
<path d="M59.8268 50.758C59.9496 50.57 60.1316 50.414 60.3727 50.29C60.6184 50.162 60.9027 50.098 61.2257 50.098C61.5579 50.098 61.8581 50.168 62.1265 50.308C62.3995 50.448 62.6133 50.646 62.768 50.902C62.9227 51.154 63 51.448 63 51.784C63 52.116 62.9227 52.412 62.768 52.672C62.6133 52.932 62.3995 53.134 62.1265 53.278C61.8581 53.422 61.5579 53.494 61.2257 53.494C60.9073 53.494 60.6252 53.432 60.3796 53.308C60.1384 53.18 59.9542 53.022 59.8268 52.834V55H59.2058V50.152H59.8268V50.758ZM62.3654 51.784C62.3654 51.536 62.3085 51.32 62.1948 51.136C62.081 50.952 61.9263 50.812 61.7307 50.716C61.5397 50.62 61.3281 50.572 61.0961 50.572C60.8686 50.572 60.6571 50.622 60.4614 50.722C60.2704 50.818 60.1157 50.96 59.9974 51.148C59.8837 51.332 59.8268 51.546 59.8268 51.79C59.8268 52.038 59.8837 52.256 59.9974 52.444C60.1157 52.628 60.2704 52.77 60.4614 52.87C60.6571 52.966 60.8686 53.014 61.0961 53.014C61.3281 53.014 61.5397 52.966 61.7307 52.87C61.9263 52.77 62.081 52.628 62.1948 52.444C62.3085 52.256 62.3654 52.036 62.3654 51.784Z" fill="#FFFADF"/>
</svg>
