<svg width="63" height="56" viewBox="0 0 63 56" fill="none" xmlns="http://www.w3.org/2000/svg">
<rect width="63" height="55" fill="white"/>
<path d="M12.3672 46C9.9055 46 7.73684 45.5731 5.86124 44.7193C3.98565 43.8655 2.53987 42.6818 1.52392 41.1682C0.507974 39.6158 0 37.8305 0 35.8124C0 34.1048 0.351675 32.5524 1.05502 31.1552C1.79745 29.7581 2.77432 28.652 3.98565 27.837C5.23604 27.022 6.60367 26.6145 8.08852 26.6145C9.45614 26.6145 10.6089 26.9638 11.5467 27.6624C12.4845 28.3221 13.0706 29.2536 13.305 30.4567C11.2731 30.4567 9.65151 31 8.44019 32.0867C7.22887 33.1345 6.62321 34.5705 6.62321 36.3946C6.62321 38.0634 7.13118 39.4023 8.14713 40.4114C9.16308 41.4204 10.5112 41.925 12.1914 41.925C14.2624 41.925 15.9621 41.2458 17.2907 39.8874C18.6583 38.4903 19.3421 36.7439 19.3421 34.6481C19.3421 32.8241 18.8341 31.097 17.8182 29.467C16.8022 27.837 15.2783 25.8577 13.2464 23.5291C11.1364 21.1229 9.53429 19.066 8.44019 17.3583C7.38517 15.6119 6.85766 13.7102 6.85766 11.6533C6.85766 9.63519 7.42424 7.83053 8.55742 6.23933C9.69059 4.60932 11.2536 3.32859 13.2464 2.39716C15.2392 1.46572 17.486 1 19.9868 1C23.1519 1 25.6722 1.73739 27.5478 3.21216C29.4625 4.68694 30.4199 6.66624 30.4199 9.15007C30.4199 10.7801 30.0096 12.0996 29.189 13.1087C28.3684 14.1177 27.2939 14.6223 25.9653 14.6223C24.4805 14.6223 23.2887 14.0207 22.39 12.8176C23.1324 12.2743 23.7185 11.5563 24.1483 10.6636C24.5781 9.77102 24.7931 8.83959 24.7931 7.86934C24.7931 6.62743 24.4218 5.63778 23.6794 4.90039C22.937 4.163 21.9211 3.79431 20.6316 3.79431C19.0686 3.79431 17.7791 4.35705 16.7632 5.48254C15.7863 6.56921 15.2978 7.96637 15.2978 9.674C15.2978 11.2264 15.7472 12.6818 16.6459 14.0401C17.5447 15.3596 18.9514 17.0673 20.866 19.163C22.429 20.8318 23.6794 22.2678 24.6172 23.4709C25.5941 24.674 26.4147 26.0712 27.0789 27.6624C27.7823 29.2147 28.134 30.903 28.134 32.727C28.134 35.2109 27.4306 37.4618 26.0239 39.4799C24.6563 41.4981 22.7612 43.0893 20.3385 44.2536C17.9549 45.4179 15.2978 46 12.3672 46Z" fill="black"/>
<path d="M50.6328 46C53.0945 46 55.2632 45.5731 57.1388 44.7193C59.0143 43.8655 60.4601 42.6818 61.4761 41.1682C62.492 39.6158 63 37.8305 63 35.8124C63 34.1048 62.6483 32.5524 61.945 31.1552C61.2025 29.7581 60.2257 28.652 59.0143 27.837C57.764 27.022 56.3963 26.6145 54.9115 26.6145C53.5439 26.6145 52.3911 26.9638 51.4533 27.6624C50.5155 28.3221 49.9294 29.2536 49.695 30.4567C51.7269 30.4567 53.3485 31 54.5598 32.0867C55.7711 33.1345 56.3768 34.5705 56.3768 36.3946C56.3768 38.0634 55.8688 39.4023 54.8529 40.4114C53.8369 41.4204 52.4888 41.925 50.8086 41.925C48.7376 41.925 47.0379 41.2458 45.7093 39.8874C44.3417 38.4903 43.6579 36.7439 43.6579 34.6481C43.6579 32.8241 44.1659 31.097 45.1818 29.467C46.1978 27.837 47.7217 25.8577 49.7536 23.5291C51.8636 21.1229 53.4657 19.066 54.5598 17.3583C55.6148 15.6119 56.1423 13.7102 56.1423 11.6533C56.1423 9.63519 55.5758 7.83053 54.4426 6.23933C53.3094 4.60932 51.7464 3.32859 49.7536 2.39716C47.7608 1.46572 45.5139 1 43.0132 1C39.8481 1 37.3277 1.73739 35.4521 3.21216C33.5375 4.68694 32.5801 6.66624 32.5801 9.15007C32.5801 10.7801 32.9904 12.0996 33.811 13.1087C34.6316 14.1177 35.7061 14.6223 37.0347 14.6223C38.5195 14.6223 39.7113 14.0207 40.61 12.8176C39.8676 12.2743 39.2815 11.5563 38.8517 10.6636C38.4218 9.77102 38.2069 8.83959 38.2069 7.86934C38.2069 6.62743 38.5781 5.63778 39.3206 4.90039C40.063 4.163 41.0789 3.79431 42.3684 3.79431C43.9314 3.79431 45.2209 4.35705 46.2368 5.48254C47.2137 6.56921 47.7022 7.96637 47.7022 9.674C47.7022 11.2264 47.2528 12.6818 46.3541 14.0401C45.4553 15.3596 44.0486 17.0673 42.134 19.163C40.571 20.8318 39.3206 22.2678 38.3828 23.4709C37.4059 24.674 36.5853 26.0712 35.921 27.6624C35.2177 29.2147 34.866 30.903 34.866 32.727C34.866 35.2109 35.5694 37.4618 36.9761 39.4799C38.3437 41.4981 40.2388 43.0893 42.6615 44.2536C45.0451 45.4179 47.7021 46 50.6328 46Z" fill="black"/>
<path d="M2.6446 54.482C2.33069 54.482 2.04863 54.434 1.79842 54.338C1.55275 54.238 1.3594 54.102 1.21837 53.93C1.07734 53.754 1.00455 53.552 1 53.324H1.66193C1.68468 53.52 1.77567 53.686 1.9349 53.822C2.09867 53.954 2.33524 54.02 2.6446 54.02C2.94031 54.02 3.17233 53.956 3.34065 53.828C3.51353 53.696 3.59997 53.528 3.59997 53.324C3.59997 53.164 3.54993 53.034 3.44984 52.934C3.34975 52.834 3.22465 52.758 3.07452 52.706C2.92439 52.654 2.72194 52.598 2.46717 52.538C2.15327 52.466 1.90078 52.394 1.7097 52.322C1.52318 52.25 1.36168 52.138 1.22519 51.986C1.09326 51.83 1.0273 51.622 1.0273 51.362C1.0273 51.134 1.09326 50.932 1.22519 50.756C1.35713 50.58 1.54138 50.444 1.77794 50.348C2.01906 50.252 2.2943 50.204 2.60366 50.204C3.04949 50.204 3.41344 50.302 3.69551 50.498C3.98212 50.694 4.14362 50.954 4.18001 51.278H3.49761C3.47486 51.118 3.37932 50.978 3.211 50.858C3.04267 50.734 2.81975 50.672 2.54224 50.672C2.28292 50.672 2.07138 50.732 1.9076 50.852C1.74382 50.968 1.66193 51.132 1.66193 51.344C1.66193 51.496 1.7097 51.62 1.80524 51.716C1.90533 51.812 2.02588 51.886 2.16692 51.938C2.3125 51.986 2.51494 52.042 2.77426 52.106C3.08816 52.182 3.34065 52.258 3.53173 52.334C3.7228 52.406 3.88658 52.52 4.02306 52.676C4.15954 52.828 4.22778 53.036 4.22778 53.3C4.22778 53.504 4.16637 53.696 4.04353 53.876C3.9207 54.056 3.73873 54.202 3.49761 54.314C3.25649 54.426 2.97216 54.482 2.6446 54.482Z" fill="black"/>
<path d="M8.53318 51.092C8.98812 51.092 9.35662 51.214 9.63868 51.458C9.92074 51.698 10.0618 52.046 10.0618 52.502V54.44H9.44761V52.58C9.44761 52.252 9.35435 52.002 9.16782 51.83C8.9813 51.654 8.72653 51.566 8.40353 51.566C8.07597 51.566 7.81438 51.656 7.61876 51.836C7.42768 52.016 7.33215 52.278 7.33215 52.622V54.44H6.71116V51.152H7.33215V51.62C7.45498 51.452 7.62103 51.322 7.8303 51.23C8.04412 51.138 8.27842 51.092 8.53318 51.092Z" fill="black"/>
<path d="M16.0577 52.67C16.0577 52.774 16.0509 52.884 16.0373 53H13.0483C13.0711 53.324 13.1962 53.578 13.4236 53.762C13.6557 53.942 13.9354 54.032 14.263 54.032C14.5314 54.032 14.7543 53.978 14.9318 53.87C15.1137 53.758 15.2411 53.61 15.3139 53.426H15.9827C15.8826 53.742 15.6824 54 15.3821 54.2C15.0819 54.396 14.7088 54.494 14.263 54.494C13.9081 54.494 13.5897 54.424 13.3076 54.284C13.0301 54.144 12.8117 53.946 12.6525 53.69C12.4933 53.43 12.4137 53.13 12.4137 52.79C12.4137 52.45 12.491 52.152 12.6457 51.896C12.8004 51.64 13.0165 51.444 13.294 51.308C13.576 51.168 13.899 51.098 14.263 51.098C14.6179 51.098 14.9318 51.166 15.2047 51.302C15.4777 51.438 15.687 51.626 15.8325 51.866C15.9827 52.102 16.0577 52.37 16.0577 52.67ZM15.4163 52.556C15.4163 52.348 15.3639 52.17 15.2593 52.022C15.1547 51.87 15.0114 51.756 14.8294 51.68C14.652 51.6 14.4541 51.56 14.2357 51.56C13.9218 51.56 13.6534 51.648 13.4305 51.824C13.2121 52 13.087 52.244 13.0551 52.556H15.4163Z" fill="black"/>
<path d="M18.2149 52.784C18.2149 52.448 18.2923 52.154 18.447 51.902C18.6016 51.646 18.8132 51.448 19.0816 51.308C19.3546 51.168 19.6571 51.098 19.9892 51.098C20.3167 51.098 20.6011 51.16 20.8422 51.284C21.0833 51.408 21.263 51.564 21.3813 51.752V51.152H22.0091V54.44H21.3813V53.828C21.2585 54.02 21.0742 54.18 20.8286 54.308C20.5874 54.432 20.3054 54.494 19.9824 54.494C19.6503 54.494 19.35 54.422 19.0816 54.278C18.8132 54.134 18.6016 53.932 18.447 53.672C18.2923 53.412 18.2149 53.116 18.2149 52.784ZM21.3813 52.79C21.3813 52.542 21.3244 52.326 21.2107 52.142C21.097 51.958 20.9423 51.818 20.7467 51.722C20.5556 51.622 20.344 51.572 20.112 51.572C19.88 51.572 19.6685 51.62 19.4774 51.716C19.2863 51.812 19.1339 51.952 19.0202 52.136C18.9064 52.32 18.8496 52.536 18.8496 52.784C18.8496 53.036 18.9064 53.256 19.0202 53.444C19.1339 53.628 19.2863 53.77 19.4774 53.87C19.6685 53.966 19.88 54.014 20.112 54.014C20.344 54.014 20.5556 53.966 20.7467 53.87C20.9423 53.77 21.097 53.628 21.2107 53.444C21.3244 53.256 21.3813 53.038 21.3813 52.79Z" fill="black"/>
<path d="M26.7162 54.44L25.2491 52.988V54.44H24.6281V50H25.2491V52.61L26.6889 51.152H27.5556L25.795 52.79L27.5624 54.44H26.7162Z" fill="black"/>
<path d="M30.3306 50V54.44H29.7096V50H30.3306Z" fill="black"/>
<path d="M36.1794 51.152L33.9275 55.988H33.286L34.023 54.404L32.5149 51.152H33.2042L34.3779 53.816L35.538 51.152H36.1794Z" fill="black"/>
<path d="M43.2702 54.482C42.9563 54.482 42.6742 54.434 42.424 54.338C42.1783 54.238 41.985 54.102 41.844 53.93C41.7029 53.754 41.6301 53.552 41.6256 53.324H42.2875C42.3103 53.52 42.4013 53.686 42.5605 53.822C42.7243 53.954 42.9608 54.02 43.2702 54.02C43.5659 54.02 43.7979 53.956 43.9662 53.828C44.1391 53.696 44.2256 53.528 44.2256 53.324C44.2256 53.164 44.1755 53.034 44.0754 52.934C43.9753 52.834 43.8502 52.758 43.7001 52.706C43.55 52.654 43.3475 52.598 43.0928 52.538C42.7789 52.466 42.5264 52.394 42.3353 52.322C42.1488 52.25 41.9873 52.138 41.8508 51.986C41.7188 51.83 41.6529 51.622 41.6529 51.362C41.6529 51.134 41.7188 50.932 41.8508 50.756C41.9827 50.58 42.167 50.444 42.4035 50.348C42.6446 50.252 42.9199 50.204 43.2292 50.204C43.6751 50.204 44.039 50.302 44.3211 50.498C44.6077 50.694 44.7692 50.954 44.8056 51.278H44.1232C44.1004 51.118 44.0049 50.978 43.8366 50.858C43.6683 50.734 43.4453 50.672 43.1678 50.672C42.9085 50.672 42.697 50.732 42.5332 50.852C42.3694 50.968 42.2875 51.132 42.2875 51.344C42.2875 51.496 42.3353 51.62 42.4308 51.716C42.5309 51.812 42.6515 51.886 42.7925 51.938C42.9381 51.986 43.1405 52.042 43.3998 52.106C43.7137 52.182 43.9662 52.258 44.1573 52.334C44.3484 52.406 44.5122 52.52 44.6486 52.676C44.7851 52.828 44.8534 53.036 44.8534 53.3C44.8534 53.504 44.792 53.696 44.6691 53.876C44.5463 54.056 44.3643 54.202 44.1232 54.314C43.8821 54.426 43.5977 54.482 43.2702 54.482Z" fill="black"/>
<path d="M49.1929 51.092C49.4749 51.092 49.7297 51.146 49.9572 51.254C50.1847 51.358 50.3621 51.516 50.4895 51.728C50.6214 51.94 50.6874 52.198 50.6874 52.502V54.44H50.0732V52.58C50.0732 52.252 49.9799 52.002 49.7934 51.83C49.6069 51.654 49.3521 51.566 49.0291 51.566C48.7016 51.566 48.44 51.656 48.2443 51.836C48.0533 52.016 47.9577 52.278 47.9577 52.622V54.44H47.3367V50H47.9577V51.62C48.0806 51.452 48.2489 51.322 48.4627 51.23C48.6811 51.138 48.9245 51.092 49.1929 51.092Z" fill="black"/>
<path d="M54.9022 54.494C54.5519 54.494 54.2335 54.424 53.9469 54.284C53.6648 54.144 53.4419 53.946 53.2781 53.69C53.1189 53.43 53.0393 53.13 53.0393 52.79C53.0393 52.454 53.1212 52.158 53.2849 51.902C53.4533 51.642 53.6807 51.444 53.9673 51.308C54.2539 51.168 54.5747 51.098 54.9295 51.098C55.2844 51.098 55.6051 51.168 55.8917 51.308C56.1783 51.444 56.4035 51.64 56.5673 51.896C56.7356 52.152 56.8198 52.45 56.8198 52.79C56.8198 53.13 56.7334 53.43 56.5605 53.69C56.3922 53.946 56.1624 54.144 55.8713 54.284C55.5801 54.424 55.2571 54.494 54.9022 54.494ZM54.9022 54.014C55.1251 54.014 55.3344 53.968 55.53 53.876C55.7257 53.784 55.8826 53.646 56.0009 53.462C56.1237 53.278 56.1852 53.054 56.1852 52.79C56.1852 52.526 56.126 52.302 56.0077 52.118C55.8894 51.934 55.7348 51.798 55.5437 51.71C55.3526 51.618 55.1456 51.572 54.9227 51.572C54.6952 51.572 54.486 51.618 54.2949 51.71C54.1084 51.798 53.9582 51.934 53.8445 52.118C53.7308 52.302 53.6739 52.526 53.6739 52.79C53.6739 53.058 53.7285 53.284 53.8377 53.468C53.9514 53.652 54.1015 53.79 54.2881 53.882C54.4746 53.97 54.6793 54.014 54.9022 54.014Z" fill="black"/>
<path d="M59.8268 51.758C59.9496 51.57 60.1316 51.414 60.3727 51.29C60.6184 51.162 60.9027 51.098 61.2257 51.098C61.5579 51.098 61.8581 51.168 62.1265 51.308C62.3995 51.448 62.6133 51.646 62.768 51.902C62.9227 52.154 63 52.448 63 52.784C63 53.116 62.9227 53.412 62.768 53.672C62.6133 53.932 62.3995 54.134 62.1265 54.278C61.8581 54.422 61.5579 54.494 61.2257 54.494C60.9073 54.494 60.6252 54.432 60.3796 54.308C60.1384 54.18 59.9542 54.022 59.8268 53.834V56H59.2058V51.152H59.8268V51.758ZM62.3654 52.784C62.3654 52.536 62.3085 52.32 62.1948 52.136C62.081 51.952 61.9263 51.812 61.7307 51.716C61.5397 51.62 61.3281 51.572 61.0961 51.572C60.8686 51.572 60.6571 51.622 60.4614 51.722C60.2704 51.818 60.1157 51.96 59.9974 52.148C59.8837 52.332 59.8268 52.546 59.8268 52.79C59.8268 53.038 59.8837 53.256 59.9974 53.444C60.1157 53.628 60.2704 53.77 60.4614 53.87C60.6571 53.966 60.8686 54.014 61.0961 54.014C61.3281 54.014 61.5397 53.966 61.7307 53.87C61.9263 53.77 62.081 53.628 62.1948 53.444C62.3085 53.256 62.3654 53.036 62.3654 52.784Z" fill="black"/>
</svg>
